<svg width="265" height="299" fill="none" xmlns="http://www.w3.org/2000/svg"><g opacity=".25"><path stroke="url(#prefix__paint0_linear_1647_27646)" stroke-opacity=".5" stroke-width="1.323" d="M117.862 21.991v247.362"/><path stroke="url(#prefix__paint1_linear_1647_27646)" stroke-opacity=".5" stroke-width="1.323" d="M98.027 21.991v247.362"/><path stroke="url(#prefix__paint2_linear_1647_27646)" stroke-opacity=".5" stroke-width="1.323" d="M75.546 21.991v247.362"/><path stroke="url(#prefix__paint3_linear_1647_27646)" stroke-opacity=".5" stroke-width="1.323" d="M54.365 21.991v247.362"/><path stroke="url(#prefix__paint4_linear_1647_27646)" stroke-opacity=".5" stroke-width="1.323" d="M34.538 21.991v247.362"/><path stroke="url(#prefix__paint5_linear_1647_27646)" stroke-opacity=".5" stroke-width="1.323" d="M243.531 21.991v247.362"/><path stroke="url(#prefix__paint6_linear_1647_27646)" stroke-opacity=".5" stroke-width="1.323" d="M223.696 21.991v247.362"/><path stroke="url(#prefix__paint7_linear_1647_27646)" stroke-opacity=".5" stroke-width="1.323" d="M202.523 21.991v247.362"/><path stroke="url(#prefix__paint8_linear_1647_27646)" stroke-opacity=".5" stroke-width="1.323" d="M180.042 21.991v247.362"/><path stroke="url(#prefix__paint9_linear_1647_27646)" stroke-opacity=".5" stroke-width="1.323" d="M160.216 21.991v247.362"/><path stroke="url(#prefix__paint10_linear_1647_27646)" stroke-opacity=".5" stroke-width="1.323" d="M139.034 21.991v247.362"/><path stroke="url(#prefix__paint11_linear_1647_27646)" stroke-width="1.323" d="M15.351 166.073h248.677"/><path stroke="url(#prefix__paint12_linear_1647_27646)" stroke-width="1.323" d="M15.351 185.813h248.677"/><path stroke="url(#prefix__paint13_linear_1647_27646)" stroke-width="1.323" d="M15.35 208.157h248.677"/><path stroke="url(#prefix__paint14_linear_1647_27646)" stroke-width="1.323" d="M15.351 229.24h248.677"/><path stroke="url(#prefix__paint15_linear_1647_27646)" stroke-width="1.323" d="M15.35 248.939h248.677"/><path stroke="url(#prefix__paint16_linear_1647_27646)" stroke-width="1.323" d="M15.35 41.076h248.677"/><path stroke="url(#prefix__paint17_linear_1647_27646)" stroke-width="1.323" d="M15.35 60.815h248.677"/><path stroke="url(#prefix__paint18_linear_1647_27646)" stroke-width="1.323" d="M15.35 81.86h248.677"/><path stroke="url(#prefix__paint19_linear_1647_27646)" stroke-width="1.323" d="M15.35 104.243h248.677"/><path stroke="url(#prefix__paint20_linear_1647_27646)" stroke-width="1.323" d="M15.35 123.94h248.677"/><path stroke="url(#prefix__paint21_linear_1647_27646)" stroke-width="1.323" d="M15.35 145.028h248.677"/></g><g opacity=".5" filter="url(#prefix__filter0_dd_1647_27646)"><path d="M186.126 47.28a5.291 5.291 0 015.634-4.926l26.395 1.772a5.29 5.29 0 014.925 5.633l-1.771 26.396a5.292 5.292 0 01-5.634 4.925l-26.395-1.772a5.29 5.29 0 01-4.925-5.633l1.771-26.396z" fill="#fff" shape-rendering="crispEdges"/><path d="M186.865 47.329a4.551 4.551 0 014.845-4.236l26.396 1.772a4.55 4.55 0 014.235 4.845l-1.772 26.395a4.55 4.55 0 01-4.844 4.236l-26.396-1.772a4.55 4.55 0 01-4.235-4.845l1.771-26.395z" stroke="#ABABAB" stroke-width="1.481" shape-rendering="crispEdges"/><rect x="205.078" y="74.428" width="11.852" height="1.481" rx=".741" transform="rotate(3.84 205.078 74.428)" fill="#848484"/><path d="M210.027 45.068l-.82 12.216a1.082 1.082 0 01-1.145 1.015l-8.203-.55a1.08 1.08 0 01-.999-1.16l.82-12.216" stroke="#ABABAB" stroke-width="1.481" stroke-miterlimit="10"/></g><g opacity=".5" filter="url(#prefix__filter1_dd_1647_27646)"><path d="M42.105 226.912a5.291 5.291 0 014.07-6.28l25.87-5.527a5.292 5.292 0 016.28 4.069l5.527 25.872a5.29 5.29 0 01-4.07 6.279l-25.87 5.527a5.291 5.291 0 01-6.28-4.069l-5.527-25.871z" fill="#fff" shape-rendering="crispEdges"/><path d="M42.83 226.757a4.55 4.55 0 013.499-5.401L72.2 215.83a4.55 4.55 0 015.4 3.499l5.527 25.871a4.55 4.55 0 01-3.499 5.401l-25.871 5.526a4.55 4.55 0 01-5.4-3.499l-5.527-25.871z" stroke="#ABABAB" stroke-width="1.481" shape-rendering="crispEdges"/><rect x="67.8" y="247.831" width="11.852" height="1.481" rx=".741" transform="rotate(-12.058 67.8 247.831)" fill="#848484"/><path d="M64.506 218.249l2.558 11.974a1.081 1.081 0 01-.824 1.289l-8.04 1.718a1.081 1.081 0 01-1.278-.841l-2.558-11.974" stroke="#ABABAB" stroke-width="1.481" stroke-miterlimit="10"/></g><path d="M150.056 99H87.869a8 8 0 00-7.908 6.79l-11.552 75.5c-.741 4.844 3.008 9.21 7.908 9.21h84.466c4.866 0 8.605-4.308 7.921-9.125l-10.727-75.5A8 8 0 00150.056 99z" fill="#F9F9F9" stroke="#ABABAB" stroke-width="2"/><path d="M99 113V88.5c0-10.77 8.73-19.5 19.5-19.5v0c10.77 0 19.5 8.73 19.5 19.5V113" stroke="#ABABAB" stroke-width="2" stroke-linecap="round"/><circle cx="99.5" cy="120.5" r="3.5" stroke="#ABABAB" stroke-width="2"/><circle cx="138.5" cy="120.5" r="3.5" stroke="#ABABAB" stroke-width="2"/><g filter="url(#prefix__filter2_d_1647_27646)" stroke="#ABABAB" stroke-width="2"><path d="M198.017 142h-64.926a8 8 0 00-7.852 6.469l-8.381 43c-.963 4.94 2.819 9.531 7.852 9.531h82.418c5.085 0 8.88-4.683 7.826-9.658l-9.11-43a8.001 8.001 0 00-7.827-6.342z" fill="#fff"/><path d="M184.81 155.414c0 9.484-8.512 17.182-19 17.182s-19-7.698-19-17.182" stroke-linecap="round" stroke-linejoin="round"/><path d="M185.645 155.014c1.658 0 2.984-1.356 2.984-3.006 0-1.65-1.326-3.005-2.984-3.005s-2.984 1.355-2.984 3.005 1.326 3.006 2.984 3.006zM145.984 155.011c1.658 0 2.984-1.356 2.984-3.006 0-1.649-1.326-3.005-2.984-3.005S143 150.356 143 152.005c0 1.65 1.326 3.006 2.984 3.006z"/></g><path transform="rotate(180 264 96)" fill="url(#prefix__paint22_linear_1647_27646)" d="M264 96h250v75H264z"/><path fill="url(#prefix__paint23_linear_1647_27646)" d="M15 205h249v66H15z"/><defs><linearGradient id="prefix__paint0_linear_1647_27646" x1="117.2" y1="21.991" x2="117.2" y2="269.353" gradientUnits="userSpaceOnUse"><stop stop-color="#fff" stop-opacity="0"/><stop offset=".495" stop-color="#AEAEAE"/><stop offset="1" stop-color="#fff" stop-opacity="0"/></linearGradient><linearGradient id="prefix__paint1_linear_1647_27646" x1="97.365" y1="21.991" x2="97.365" y2="269.353" gradientUnits="userSpaceOnUse"><stop stop-color="#fff" stop-opacity="0"/><stop offset=".495" stop-color="#AEAEAE"/><stop offset="1" stop-color="#fff" stop-opacity="0"/></linearGradient><linearGradient id="prefix__paint2_linear_1647_27646" x1="74.885" y1="21.991" x2="74.885" y2="269.353" gradientUnits="userSpaceOnUse"><stop stop-color="#fff" stop-opacity="0"/><stop offset=".495" stop-color="#AEAEAE"/><stop offset="1" stop-color="#fff" stop-opacity="0"/></linearGradient><linearGradient id="prefix__paint3_linear_1647_27646" x1="53.704" y1="21.991" x2="53.704" y2="269.353" gradientUnits="userSpaceOnUse"><stop stop-color="#fff" stop-opacity="0"/><stop offset=".495" stop-color="#AEAEAE"/><stop offset="1" stop-color="#fff" stop-opacity="0"/></linearGradient><linearGradient id="prefix__paint4_linear_1647_27646" x1="33.877" y1="21.991" x2="33.877" y2="269.353" gradientUnits="userSpaceOnUse"><stop stop-color="#fff" stop-opacity="0"/><stop offset=".495" stop-color="#AEAEAE"/><stop offset="1" stop-color="#fff" stop-opacity="0"/></linearGradient><linearGradient id="prefix__paint5_linear_1647_27646" x1="242.869" y1="21.991" x2="242.869" y2="269.353" gradientUnits="userSpaceOnUse"><stop stop-color="#fff" stop-opacity="0"/><stop offset=".495" stop-color="#AEAEAE"/><stop offset="1" stop-color="#fff" stop-opacity="0"/></linearGradient><linearGradient id="prefix__paint6_linear_1647_27646" x1="223.034" y1="21.991" x2="223.034" y2="269.353" gradientUnits="userSpaceOnUse"><stop stop-color="#fff" stop-opacity="0"/><stop offset=".495" stop-color="#AEAEAE"/><stop offset="1" stop-color="#fff" stop-opacity="0"/></linearGradient><linearGradient id="prefix__paint7_linear_1647_27646" x1="201.861" y1="21.991" x2="201.861" y2="269.353" gradientUnits="userSpaceOnUse"><stop stop-color="#fff" stop-opacity="0"/><stop offset=".495" stop-color="#AEAEAE"/><stop offset="1" stop-color="#fff" stop-opacity="0"/></linearGradient><linearGradient id="prefix__paint8_linear_1647_27646" x1="179.381" y1="21.991" x2="179.381" y2="269.353" gradientUnits="userSpaceOnUse"><stop stop-color="#fff" stop-opacity="0"/><stop offset=".495" stop-color="#AEAEAE"/><stop offset="1" stop-color="#fff" stop-opacity="0"/></linearGradient><linearGradient id="prefix__paint9_linear_1647_27646" x1="159.555" y1="21.991" x2="159.555" y2="269.353" gradientUnits="userSpaceOnUse"><stop stop-color="#fff" stop-opacity="0"/><stop offset=".495" stop-color="#AEAEAE"/><stop offset="1" stop-color="#fff" stop-opacity="0"/></linearGradient><linearGradient id="prefix__paint10_linear_1647_27646" x1="138.373" y1="21.991" x2="138.373" y2="269.353" gradientUnits="userSpaceOnUse"><stop stop-color="#fff" stop-opacity="0"/><stop offset=".495" stop-color="#AEAEAE"/><stop offset="1" stop-color="#fff" stop-opacity="0"/></linearGradient><linearGradient id="prefix__paint11_linear_1647_27646" x1="15.351" y1="166.734" x2="264.028" y2="166.734" gradientUnits="userSpaceOnUse"><stop stop-color="#fff" stop-opacity="0"/><stop offset=".495" stop-color="#E8E8E8"/><stop offset="1" stop-color="#F1F1F1" stop-opacity="0"/></linearGradient><linearGradient id="prefix__paint12_linear_1647_27646" x1="15.351" y1="186.475" x2="264.028" y2="186.475" gradientUnits="userSpaceOnUse"><stop stop-color="#fff" stop-opacity="0"/><stop offset=".495" stop-color="#E8E8E8"/><stop offset="1" stop-color="#F1F1F1" stop-opacity="0"/></linearGradient><linearGradient id="prefix__paint13_linear_1647_27646" x1="15.35" y1="208.818" x2="264.027" y2="208.818" gradientUnits="userSpaceOnUse"><stop stop-color="#fff" stop-opacity="0"/><stop offset=".495" stop-color="#E8E8E8"/><stop offset="1" stop-color="#F1F1F1" stop-opacity="0"/></linearGradient><linearGradient id="prefix__paint14_linear_1647_27646" x1="15.351" y1="229.901" x2="264.028" y2="229.901" gradientUnits="userSpaceOnUse"><stop stop-color="#fff" stop-opacity="0"/><stop offset=".495" stop-color="#E8E8E8"/><stop offset="1" stop-color="#F1F1F1" stop-opacity="0"/></linearGradient><linearGradient id="prefix__paint15_linear_1647_27646" x1="15.35" y1="249.601" x2="264.027" y2="249.601" gradientUnits="userSpaceOnUse"><stop stop-color="#fff" stop-opacity="0"/><stop offset=".495" stop-color="#E8E8E8"/><stop offset="1" stop-color="#F1F1F1" stop-opacity="0"/></linearGradient><linearGradient id="prefix__paint16_linear_1647_27646" x1="15.35" y1="41.737" x2="264.027" y2="41.737" gradientUnits="userSpaceOnUse"><stop stop-color="#fff" stop-opacity="0"/><stop offset=".495" stop-color="#E8E8E8"/><stop offset="1" stop-color="#F1F1F1" stop-opacity="0"/></linearGradient><linearGradient id="prefix__paint17_linear_1647_27646" x1="15.35" y1="61.477" x2="264.027" y2="61.477" gradientUnits="userSpaceOnUse"><stop stop-color="#fff" stop-opacity="0"/><stop offset=".495" stop-color="#E8E8E8"/><stop offset="1" stop-color="#F1F1F1" stop-opacity="0"/></linearGradient><linearGradient id="prefix__paint18_linear_1647_27646" x1="15.35" y1="82.522" x2="264.027" y2="82.522" gradientUnits="userSpaceOnUse"><stop stop-color="#fff" stop-opacity="0"/><stop offset=".495" stop-color="#E8E8E8"/><stop offset="1" stop-color="#F1F1F1" stop-opacity="0"/></linearGradient><linearGradient id="prefix__paint19_linear_1647_27646" x1="15.35" y1="104.904" x2="264.027" y2="104.904" gradientUnits="userSpaceOnUse"><stop stop-color="#fff" stop-opacity="0"/><stop offset=".495" stop-color="#E8E8E8"/><stop offset="1" stop-color="#F1F1F1" stop-opacity="0"/></linearGradient><linearGradient id="prefix__paint20_linear_1647_27646" x1="15.35" y1="124.602" x2="264.027" y2="124.602" gradientUnits="userSpaceOnUse"><stop stop-color="#fff" stop-opacity="0"/><stop offset=".495" stop-color="#E8E8E8"/><stop offset="1" stop-color="#F1F1F1" stop-opacity="0"/></linearGradient><linearGradient id="prefix__paint21_linear_1647_27646" x1="15.35" y1="145.689" x2="264.027" y2="145.689" gradientUnits="userSpaceOnUse"><stop stop-color="#fff" stop-opacity="0"/><stop offset=".495" stop-color="#E8E8E8"/><stop offset="1" stop-color="#F1F1F1" stop-opacity="0"/></linearGradient><linearGradient id="prefix__paint22_linear_1647_27646" x1="389" y1="79.404" x2="389" y2="166.566" gradientUnits="userSpaceOnUse"><stop offset=".28" stop-color="#fff" stop-opacity="0"/><stop offset=".9" stop-color="#fff"/></linearGradient><linearGradient id="prefix__paint23_linear_1647_27646" x1="139.5" y1="190.395" x2="139.5" y2="267.098" gradientUnits="userSpaceOnUse"><stop offset=".28" stop-color="#fff" stop-opacity="0"/><stop offset=".9" stop-color="#fff"/></linearGradient><filter id="prefix__filter0_dd_1647_27646" x="142.519" y=".519" width="122.398" height="122.397" filterUnits="userSpaceOnUse" color-interpolation-filters="sRGB"><feFlood flood-opacity="0" result="BackgroundImageFix"/><feColorMatrix in="SourceAlpha" values="0 0 0 0 0 0 0 0 0 0 0 0 0 0 0 0 0 0 127 0" result="hardAlpha"/><feOffset/><feGaussianBlur stdDeviation="20.741"/><feComposite in2="hardAlpha" operator="out"/><feColorMatrix values="0 0 0 0 0.517647 0 0 0 0 0.517647 0 0 0 0 0.517647 0 0 0 0.15 0"/><feBlend in2="BackgroundImageFix" result="effect1_dropShadow_1647_27646"/><feColorMatrix in="SourceAlpha" values="0 0 0 0 0 0 0 0 0 0 0 0 0 0 0 0 0 0 127 0" result="hardAlpha"/><feOffset dx="2.963" dy="2.963"/><feGaussianBlur stdDeviation="2.963"/><feComposite in2="hardAlpha" operator="out"/><feColorMatrix values="0 0 0 0 0.517647 0 0 0 0 0.517647 0 0 0 0 0.517647 0 0 0 0.25 0"/><feBlend in2="effect1_dropShadow_1647_27646" result="effect2_dropShadow_1647_27646"/><feBlend in="SourceGraphic" in2="effect2_dropShadow_1647_27646" result="shape"/></filter><filter id="prefix__filter1_dd_1647_27646" x="-.481" y="172.519" width="126.92" height="126.92" filterUnits="userSpaceOnUse" color-interpolation-filters="sRGB"><feFlood flood-opacity="0" result="BackgroundImageFix"/><feColorMatrix in="SourceAlpha" values="0 0 0 0 0 0 0 0 0 0 0 0 0 0 0 0 0 0 127 0" result="hardAlpha"/><feOffset/><feGaussianBlur stdDeviation="20.741"/><feComposite in2="hardAlpha" operator="out"/><feColorMatrix values="0 0 0 0 0.517647 0 0 0 0 0.517647 0 0 0 0 0.517647 0 0 0 0.15 0"/><feBlend in2="BackgroundImageFix" result="effect1_dropShadow_1647_27646"/><feColorMatrix in="SourceAlpha" values="0 0 0 0 0 0 0 0 0 0 0 0 0 0 0 0 0 0 127 0" result="hardAlpha"/><feOffset dx="2.963" dy="2.963"/><feGaussianBlur stdDeviation="2.963"/><feComposite in2="hardAlpha" operator="out"/><feColorMatrix values="0 0 0 0 0.517647 0 0 0 0 0.517647 0 0 0 0 0.517647 0 0 0 0.25 0"/><feBlend in2="effect1_dropShadow_1647_27646" result="effect2_dropShadow_1647_27646"/><feBlend in="SourceGraphic" in2="effect2_dropShadow_1647_27646" result="shape"/></filter><filter id="prefix__filter2_d_1647_27646" x="108.707" y="135" width="114.424" height="75" filterUnits="userSpaceOnUse" color-interpolation-filters="sRGB"><feFlood flood-opacity="0" result="BackgroundImageFix"/><feColorMatrix in="SourceAlpha" values="0 0 0 0 0 0 0 0 0 0 0 0 0 0 0 0 0 0 127 0" result="hardAlpha"/><feOffset dy="1"/><feGaussianBlur stdDeviation="3.5"/><feComposite in2="hardAlpha" operator="out"/><feColorMatrix values="0 0 0 0 0 0 0 0 0 0 0 0 0 0 0 0 0 0 0.18 0"/><feBlend in2="BackgroundImageFix" result="effect1_dropShadow_1647_27646"/><feBlend in="SourceGraphic" in2="effect1_dropShadow_1647_27646" result="shape"/></filter></defs></svg>
